# Generated by CG-SolarSystem
v 2.000000 0.000000 0.000000
v 1.847760 0.000000 0.765367
v 0.000000 0.000000 0.000000
v 2.000000 3.000000 0.000000
v 0.000000 3.000000 0.000000
v 1.847760 3.000000 0.765367
v 1.414210 0.000000 1.414210
v 1.414210 3.000000 1.414210
v 0.765367 0.000000 1.847760
v 0.765367 3.000000 1.847760
v -0.000000 0.000000 2.000000
v -0.000000 3.000000 2.000000
v -0.765367 0.000000 1.847760
v -0.765367 3.000000 1.847760
v -1.414210 0.000000 1.414210
v -1.414210 3.000000 1.414210
v -1.847760 0.000000 0.765367
v -1.847760 3.000000 0.765367
v -2.000000 0.000000 -0.000000
v -2.000000 3.000000 -0.000000
v -1.847760 0.000000 -0.765367
v -1.847760 3.000000 -0.765367
v -1.414210 0.000000 -1.414210
v -1.414210 3.000000 -1.414210
v -0.765366 0.000000 -1.847760
v -0.765366 3.000000 -1.847760
v 0.000000 0.000000 -2.000000
v 0.000000 3.000000 -2.000000
v 0.765367 0.000000 -1.847760
v 0.765367 3.000000 -1.847760
v 1.414210 0.000000 -1.414210
v 1.414210 3.000000 -1.414210
v 1.847760 0.000000 -0.765367
v 1.847760 3.000000 -0.765367
v 2.000000 0.375000 0.000000
v 1.847760 0.375000 0.765367
v 1.414210 0.375000 1.414210
v 0.765367 0.375000 1.847760
v -0.000000 0.375000 2.000000
v -0.765367 0.375000 1.847760
v -1.414210 0.375000 1.414210
v -1.847760 0.375000 0.765367
v -2.000000 0.375000 -0.000000
v -1.847760 0.375000 -0.765367
v -1.414210 0.375000 -1.414210
v -0.765366 0.375000 -1.847760
v 0.000000 0.375000 -2.000000
v 0.765367 0.375000 -1.847760
v 1.414210 0.375000 -1.414210
v 1.847760 0.375000 -0.765367
v 2.000000 0.750000 0.000000
v 1.847760 0.750000 0.765367
v 1.414210 0.750000 1.414210
v 0.765367 0.750000 1.847760
v -0.000000 0.750000 2.000000
v -0.765367 0.750000 1.847760
v -1.414210 0.750000 1.414210
v -1.847760 0.750000 0.765367
v -2.000000 0.750000 -0.000000
v -1.847760 0.750000 -0.765367
v -1.414210 0.750000 -1.414210
v -0.765366 0.750000 -1.847760
v 0.000000 0.750000 -2.000000
v 0.765367 0.750000 -1.847760
v 1.414210 0.750000 -1.414210
v 1.847760 0.750000 -0.765367
v 2.000000 1.125000 0.000000
v 1.847760 1.125000 0.765367
v 1.414210 1.125000 1.414210
v 0.765367 1.125000 1.847760
v -0.000000 1.125000 2.000000
v -0.765367 1.125000 1.847760
v -1.414210 1.125000 1.414210
v -1.847760 1.125000 0.765367
v -2.000000 1.125000 -0.000000
v -1.847760 1.125000 -0.765367
v -1.414210 1.125000 -1.414210
v -0.765366 1.125000 -1.847760
v 0.000000 1.125000 -2.000000
v 0.765367 1.125000 -1.847760
v 1.414210 1.125000 -1.414210
v 1.847760 1.125000 -0.765367
v 2.000000 1.500000 0.000000
v 1.847760 1.500000 0.765367
v 1.414210 1.500000 1.414210
v 0.765367 1.500000 1.847760
v -0.000000 1.500000 2.000000
v -0.765367 1.500000 1.847760
v -1.414210 1.500000 1.414210
v -1.847760 1.500000 0.765367
v -2.000000 1.500000 -0.000000
v -1.847760 1.500000 -0.765367
v -1.414210 1.500000 -1.414210
v -0.765366 1.500000 -1.847760
v 0.000000 1.500000 -2.000000
v 0.765367 1.500000 -1.847760
v 1.414210 1.500000 -1.414210
v 1.847760 1.500000 -0.765367
v 2.000000 1.875000 0.000000
v 1.847760 1.875000 0.765367
v 1.414210 1.875000 1.414210
v 0.765367 1.875000 1.847760
v -0.000000 1.875000 2.000000
v -0.765367 1.875000 1.847760
v -1.414210 1.875000 1.414210
v -1.847760 1.875000 0.765367
v -2.000000 1.875000 -0.000000
v -1.847760 1.875000 -0.765367
v -1.414210 1.875000 -1.414210
v -0.765366 1.875000 -1.847760
v 0.000000 1.875000 -2.000000
v 0.765367 1.875000 -1.847760
v 1.414210 1.875000 -1.414210
v 1.847760 1.875000 -0.765367
v 2.000000 2.250000 0.000000
v 1.847760 2.250000 0.765367
v 1.414210 2.250000 1.414210
v 0.765367 2.250000 1.847760
v -0.000000 2.250000 2.000000
v -0.765367 2.250000 1.847760
v -1.414210 2.250000 1.414210
v -1.847760 2.250000 0.765367
v -2.000000 2.250000 -0.000000
v -1.847760 2.250000 -0.765367
v -1.414210 2.250000 -1.414210
v -0.765366 2.250000 -1.847760
v 0.000000 2.250000 -2.000000
v 0.765367 2.250000 -1.847760
v 1.414210 2.250000 -1.414210
v 1.847760 2.250000 -0.765367
v 2.000000 2.625000 0.000000
v 1.847760 2.625000 0.765367
v 1.414210 2.625000 1.414210
v 0.765367 2.625000 1.847760
v -0.000000 2.625000 2.000000
v -0.765367 2.625000 1.847760
v -1.414210 2.625000 1.414210
v -1.847760 2.625000 0.765367
v -2.000000 2.625000 -0.000000
v -1.847760 2.625000 -0.765367
v -1.414210 2.625000 -1.414210
v -0.765366 2.625000 -1.847760
v 0.000000 2.625000 -2.000000
v 0.765367 2.625000 -1.847760
v 1.414210 2.625000 -1.414210
v 1.847760 2.625000 -0.765367
vt 0.500000 0.500000
vt 0.562500 0.500000
vt 0.500000 0.500000
vt 0.500000 0.187167
vt 0.500000 0.000000
vt 0.562500 0.187167
vt 0.625000 0.500000
vt 0.625000 0.187167
vt 0.687500 0.500000
vt 0.687500 0.187167
vt 0.750000 0.500000
vt 0.750000 0.187167
vt 0.812500 0.500000
vt 0.812500 0.187167
vt 0.875000 0.500000
vt 0.875000 0.187167
vt 0.937500 0.500000
vt 0.937500 0.187167
vt 0.000000 0.500000
vt 0.000000 0.187167
vt 0.062500 0.500000
vt 0.062500 0.187167
vt 0.125000 0.500000
vt 0.125000 0.187167
vt 0.187500 0.500000
vt 0.187500 0.187167
vt 0.250000 0.500000
vt 0.250000 0.187167
vt 0.312500 0.500000
vt 0.312500 0.187167
vt 0.375000 0.500000
vt 0.375000 0.187167
vt 0.437500 0.500000
vt 0.437500 0.187167
vt 0.500000 0.441002
vt 0.562500 0.441002
vt 0.625000 0.441002
vt 0.687500 0.441002
vt 0.750000 0.441002
vt 0.812500 0.441002
vt 0.875000 0.441002
vt 0.937500 0.441002
vt 0.000000 0.441002
vt 0.062500 0.441002
vt 0.125000 0.441002
vt 0.187500 0.441002
vt 0.250000 0.441002
vt 0.312500 0.441002
vt 0.375000 0.441002
vt 0.437500 0.441002
vt 0.500000 0.385800
vt 0.562500 0.385800
vt 0.625000 0.385799
vt 0.687500 0.385800
vt 0.750000 0.385800
vt 0.812500 0.385800
vt 0.875000 0.385799
vt 0.937500 0.385800
vt 0.000000 0.385800
vt 0.062500 0.385800
vt 0.125000 0.385799
vt 0.187500 0.385800
vt 0.250000 0.385800
vt 0.312500 0.385800
vt 0.375000 0.385799
vt 0.437500 0.385800
vt 0.500000 0.336901
vt 0.562500 0.336901
vt 0.625000 0.336901
vt 0.687500 0.336901
vt 0.750000 0.336901
vt 0.812500 0.336901
vt 0.875000 0.336901
vt 0.937500 0.336901
vt 0.000000 0.336901
vt 0.062500 0.336901
vt 0.125000 0.336901
vt 0.187500 0.336901
vt 0.250000 0.336901
vt 0.312500 0.336901
vt 0.375000 0.336901
vt 0.437500 0.336901
vt 0.500000 0.295167
vt 0.562500 0.295167
vt 0.625000 0.295167
vt 0.687500 0.295167
vt 0.750000 0.295167
vt 0.812500 0.295167
vt 0.875000 0.295167
vt 0.937500 0.295167
vt 0.000000 0.295167
vt 0.062500 0.295167
vt 0.125000 0.295167
vt 0.187500 0.295167
vt 0.250000 0.295167
vt 0.312500 0.295167
vt 0.375000 0.295167
vt 0.437500 0.295167
vt 0.500000 0.260265
vt 0.562500 0.260265
vt 0.625000 0.260264
vt 0.687500 0.260265
vt 0.750000 0.260265
vt 0.812500 0.260265
vt 0.875000 0.260264
vt 0.937500 0.260265
vt 0.000000 0.260265
vt 0.062500 0.260265
vt 0.125000 0.260264
vt 0.187500 0.260265
vt 0.250000 0.260265
vt 0.312500 0.260265
vt 0.375000 0.260264
vt 0.437500 0.260265
vt 0.500000 0.231297
vt 0.562500 0.231298
vt 0.625000 0.231297
vt 0.687500 0.231298
vt 0.750000 0.231297
vt 0.812500 0.231298
vt 0.875000 0.231297
vt 0.937500 0.231298
vt 0.000000 0.231297
vt 0.062500 0.231298
vt 0.125000 0.231297
vt 0.187500 0.231297
vt 0.250000 0.231297
vt 0.312500 0.231298
vt 0.375000 0.231297
vt 0.437500 0.231298
vt 0.500000 0.207244
vt 0.562500 0.207244
vt 0.625000 0.207244
vt 0.687500 0.207244
vt 0.750000 0.207244
vt 0.812500 0.207244
vt 0.875000 0.207244
vt 0.937500 0.207244
vt 0.000000 0.207244
vt 0.062500 0.207244
vt 0.125000 0.207244
vt 0.187500 0.207244
vt 0.250000 0.207244
vt 0.312500 0.207244
vt 0.375000 0.207244
vt 0.437500 0.207244
vn 0.825791 -0.561312 -0.054753
vn 0.783884 -0.561313 0.265432
vn 0.000000 -1.000000 0.000000
vn 0.825791 0.561312 0.054753
vn 0.000000 1.000000 0.000000
vn 0.741976 0.561313 0.366605
vn 0.622638 -0.561312 0.545208
vn 0.545208 0.561312 0.622638
vn 0.366605 -0.561313 0.741976
vn 0.265432 0.561313 0.783884
vn 0.054753 -0.561312 0.825791
vn -0.054753 0.561312 0.825791
vn -0.265432 -0.561313 0.783884
vn -0.366605 0.561313 0.741976
vn -0.545208 -0.561312 0.622638
vn -0.622638 0.561312 0.545208
vn -0.741976 -0.561313 0.366605
vn -0.783884 0.561313 0.265432
vn -0.825791 -0.561312 0.054753
vn -0.825791 0.561312 -0.054753
vn -0.783884 -0.561313 -0.265432
vn -0.741976 0.561313 -0.366605
vn -0.622637 -0.561312 -0.545208
vn -0.545207 0.561312 -0.622638
vn -0.366605 -0.561313 -0.741976
vn -0.265432 0.561313 -0.783884
vn -0.054753 -0.561312 -0.825791
vn 0.054753 0.561312 -0.825791
vn 0.265432 -0.561313 -0.783884
vn 0.366605 0.561313 -0.741976
vn 0.545208 -0.561312 -0.622638
vn 0.622638 0.561312 -0.545208
vn 0.741976 -0.561313 -0.366605
vn 0.783884 0.561313 -0.265432
vn 1.000000 0.000000 0.000000
vn 0.923878 0.000000 0.382686
vn 0.707107 0.000000 0.707107
vn 0.382686 0.000000 0.923878
vn -0.000000 0.000000 1.000000
vn -0.382686 0.000000 0.923878
vn -0.707107 0.000000 0.707107
vn -0.923878 0.000000 0.382686
vn -1.000000 0.000000 -0.000000
vn -0.923878 0.000000 -0.382686
vn -0.707107 0.000000 -0.707107
vn -0.382686 0.000000 -0.923878
vn -0.000000 0.000000 -1.000000
vn 0.382686 0.000000 -0.923878
vn 0.707107 0.000000 -0.707107
vn 0.923878 0.000000 -0.382686
vn 1.000000 0.000000 0.000000
vn 0.923878 0.000000 0.382686
vn 0.707107 0.000000 0.707107
vn 0.382686 0.000000 0.923878
vn -0.000000 0.000000 1.000000
vn -0.382686 0.000000 0.923878
vn -0.707107 0.000000 0.707107
vn -0.923878 0.000000 0.382686
vn -1.000000 0.000000 -0.000000
vn -0.923878 0.000000 -0.382686
vn -0.707107 0.000000 -0.707107
vn -0.382686 0.000000 -0.923878
vn -0.000000 0.000000 -1.000000
vn 0.382686 0.000000 -0.923878
vn 0.707107 0.000000 -0.707107
vn 0.923878 0.000000 -0.382686
vn 1.000000 0.000000 0.000000
vn 0.923878 0.000000 0.382686
vn 0.707107 0.000000 0.707107
vn 0.382686 0.000000 0.923878
vn -0.000000 0.000000 1.000000
vn -0.382686 0.000000 0.923878
vn -0.707107 0.000000 0.707107
vn -0.923878 0.000000 0.382686
vn -1.000000 0.000000 -0.000000
vn -0.923878 0.000000 -0.382686
vn -0.707107 0.000000 -0.707107
vn -0.382686 0.000000 -0.923878
vn -0.000000 0.000000 -1.000000
vn 0.382686 0.000000 -0.923878
vn 0.707107 0.000000 -0.707107
vn 0.923878 0.000000 -0.382686
vn 1.000000 0.000000 0.000000
vn 0.923878 0.000000 0.382686
vn 0.707107 0.000000 0.707107
vn 0.382686 0.000000 0.923878
vn -0.000000 0.000000 1.000000
vn -0.382686 0.000000 0.923878
vn -0.707107 0.000000 0.707107
vn -0.923878 0.000000 0.382686
vn -1.000000 0.000000 -0.000000
vn -0.923878 0.000000 -0.382686
vn -0.707107 0.000000 -0.707107
vn -0.382686 0.000000 -0.923878
vn -0.000000 0.000000 -1.000000
vn 0.382686 0.000000 -0.923878
vn 0.707107 0.000000 -0.707107
vn 0.923878 0.000000 -0.382686
vn 1.000000 0.000000 0.000000
vn 0.923878 0.000000 0.382686
vn 0.707107 0.000000 0.707107
vn 0.382686 0.000000 0.923878
vn -0.000000 0.000000 1.000000
vn -0.382686 0.000000 0.923878
vn -0.707107 0.000000 0.707107
vn -0.923878 0.000000 0.382686
vn -1.000000 0.000000 -0.000000
vn -0.923878 0.000000 -0.382686
vn -0.707107 0.000000 -0.707107
vn -0.382686 0.000000 -0.923878
vn -0.000000 0.000000 -1.000000
vn 0.382686 0.000000 -0.923878
vn 0.707107 0.000000 -0.707107
vn 0.923878 0.000000 -0.382686
vn 1.000000 0.000000 0.000000
vn 0.923878 0.000000 0.382686
vn 0.707107 0.000000 0.707107
vn 0.382686 0.000000 0.923878
vn -0.000000 0.000000 1.000000
vn -0.382686 0.000000 0.923878
vn -0.707107 0.000000 0.707107
vn -0.923878 0.000000 0.382686
vn -1.000000 0.000000 -0.000000
vn -0.923878 0.000000 -0.382686
vn -0.707107 0.000000 -0.707107
vn -0.382686 0.000000 -0.923878
vn -0.000000 0.000000 -1.000000
vn 0.382686 0.000000 -0.923878
vn 0.707107 0.000000 -0.707107
vn 0.923878 0.000000 -0.382686
vn 1.000000 0.000000 0.000000
vn 0.923878 0.000000 0.382686
vn 0.707107 0.000000 0.707107
vn 0.382686 0.000000 0.923878
vn -0.000000 0.000000 1.000000
vn -0.382686 0.000000 0.923878
vn -0.707107 0.000000 0.707107
vn -0.923878 0.000000 0.382686
vn -1.000000 0.000000 -0.000000
vn -0.923878 0.000000 -0.382686
vn -0.707107 0.000000 -0.707107
vn -0.382686 0.000000 -0.923878
vn -0.000000 0.000000 -1.000000
vn 0.382686 0.000000 -0.923878
vn 0.707107 0.000000 -0.707107
vn 0.923878 0.000000 -0.382686
f 1/1/1 2/2/2 3/3/3
f 4/4/4 5/5/5 6/6/6
f 2/2/2 7/7/7 3/3/3
f 6/6/6 5/5/5 8/8/8
f 7/7/7 9/9/9 3/3/3
f 8/8/8 5/5/5 10/10/10
f 9/9/9 11/11/11 3/3/3
f 10/10/10 5/5/5 12/12/12
f 11/11/11 13/13/13 3/3/3
f 12/12/12 5/5/5 14/14/14
f 13/13/13 15/15/15 3/3/3
f 14/14/14 5/5/5 16/16/16
f 15/15/15 17/17/17 3/3/3
f 16/16/16 5/5/5 18/18/18
f 17/17/17 19/19/19 3/3/3
f 18/18/18 5/5/5 20/20/20
f 19/19/19 21/21/21 3/3/3
f 20/20/20 5/5/5 22/22/22
f 21/21/21 23/23/23 3/3/3
f 22/22/22 5/5/5 24/24/24
f 23/23/23 25/25/25 3/3/3
f 24/24/24 5/5/5 26/26/26
f 25/25/25 27/27/27 3/3/3
f 26/26/26 5/5/5 28/28/28
f 27/27/27 29/29/29 3/3/3
f 28/28/28 5/5/5 30/30/30
f 29/29/29 31/31/31 3/3/3
f 30/30/30 5/5/5 32/32/32
f 31/31/31 33/33/33 3/3/3
f 32/32/32 5/5/5 34/34/34
f 33/33/33 1/1/1 3/3/3
f 34/34/34 5/5/5 4/4/4
f 2/2/2 1/1/1 35/35/35
f 2/2/2 35/35/35 36/36/36
f 7/7/7 2/2/2 36/36/36
f 7/7/7 36/36/36 37/37/37
f 9/9/9 7/7/7 37/37/37
f 9/9/9 37/37/37 38/38/38
f 11/11/11 9/9/9 38/38/38
f 11/11/11 38/38/38 39/39/39
f 13/13/13 11/11/11 39/39/39
f 13/13/13 39/39/39 40/40/40
f 15/15/15 13/13/13 40/40/40
f 15/15/15 40/40/40 41/41/41
f 17/17/17 15/15/15 41/41/41
f 17/17/17 41/41/41 42/42/42
f 19/19/19 17/17/17 42/42/42
f 19/19/19 42/42/42 43/43/43
f 21/21/21 19/19/19 43/43/43
f 21/21/21 43/43/43 44/44/44
f 23/23/23 21/21/21 44/44/44
f 23/23/23 44/44/44 45/45/45
f 25/25/25 23/23/23 45/45/45
f 25/25/25 45/45/45 46/46/46
f 27/27/27 25/25/25 46/46/46
f 27/27/27 46/46/46 47/47/47
f 29/29/29 27/27/27 47/47/47
f 29/29/29 47/47/47 48/48/48
f 31/31/31 29/29/29 48/48/48
f 31/31/31 48/48/48 49/49/49
f 33/33/33 31/31/31 49/49/49
f 33/33/33 49/49/49 50/50/50
f 1/1/1 33/33/33 50/50/50
f 1/1/1 50/50/50 35/35/35
f 36/36/36 35/35/35 51/51/51
f 36/36/36 51/51/51 52/52/52
f 37/37/37 36/36/36 52/52/52
f 37/37/37 52/52/52 53/53/53
f 38/38/38 37/37/37 53/53/53
f 38/38/38 53/53/53 54/54/54
f 39/39/39 38/38/38 54/54/54
f 39/39/39 54/54/54 55/55/55
f 40/40/40 39/39/39 55/55/55
f 40/40/40 55/55/55 56/56/56
f 41/41/41 40/40/40 56/56/56
f 41/41/41 56/56/56 57/57/57
f 42/42/42 41/41/41 57/57/57
f 42/42/42 57/57/57 58/58/58
f 43/43/43 42/42/42 58/58/58
f 43/43/43 58/58/58 59/59/59
f 44/44/44 43/43/43 59/59/59
f 44/44/44 59/59/59 60/60/60
f 45/45/45 44/44/44 60/60/60
f 45/45/45 60/60/60 61/61/61
f 46/46/46 45/45/45 61/61/61
f 46/46/46 61/61/61 62/62/62
f 47/47/47 46/46/46 62/62/62
f 47/47/47 62/62/62 63/63/63
f 48/48/48 47/47/47 63/63/63
f 48/48/48 63/63/63 64/64/64
f 49/49/49 48/48/48 64/64/64
f 49/49/49 64/64/64 65/65/65
f 50/50/50 49/49/49 65/65/65
f 50/50/50 65/65/65 66/66/66
f 35/35/35 50/50/50 66/66/66
f 35/35/35 66/66/66 51/51/51
f 52/52/52 51/51/51 67/67/67
f 52/52/52 67/67/67 68/68/68
f 53/53/53 52/52/52 68/68/68
f 53/53/53 68/68/68 69/69/69
f 54/54/54 53/53/53 69/69/69
f 54/54/54 69/69/69 70/70/70
f 55/55/55 54/54/54 70/70/70
f 55/55/55 70/70/70 71/71/71
f 56/56/56 55/55/55 71/71/71
f 56/56/56 71/71/71 72/72/72
f 57/57/57 56/56/56 72/72/72
f 57/57/57 72/72/72 73/73/73
f 58/58/58 57/57/57 73/73/73
f 58/58/58 73/73/73 74/74/74
f 59/59/59 58/58/58 74/74/74
f 59/59/59 74/74/74 75/75/75
f 60/60/60 59/59/59 75/75/75
f 60/60/60 75/75/75 76/76/76
f 61/61/61 60/60/60 76/76/76
f 61/61/61 76/76/76 77/77/77
f 62/62/62 61/61/61 77/77/77
f 62/62/62 77/77/77 78/78/78
f 63/63/63 62/62/62 78/78/78
f 63/63/63 78/78/78 79/79/79
f 64/64/64 63/63/63 79/79/79
f 64/64/64 79/79/79 80/80/80
f 65/65/65 64/64/64 80/80/80
f 65/65/65 80/80/80 81/81/81
f 66/66/66 65/65/65 81/81/81
f 66/66/66 81/81/81 82/82/82
f 51/51/51 66/66/66 82/82/82
f 51/51/51 82/82/82 67/67/67
f 68/68/68 67/67/67 83/83/83
f 68/68/68 83/83/83 84/84/84
f 69/69/69 68/68/68 84/84/84
f 69/69/69 84/84/84 85/85/85
f 70/70/70 69/69/69 85/85/85
f 70/70/70 85/85/85 86/86/86
f 71/71/71 70/70/70 86/86/86
f 71/71/71 86/86/86 87/87/87
f 72/72/72 71/71/71 87/87/87
f 72/72/72 87/87/87 88/88/88
f 73/73/73 72/72/72 88/88/88
f 73/73/73 88/88/88 89/89/89
f 74/74/74 73/73/73 89/89/89
f 74/74/74 89/89/89 90/90/90
f 75/75/75 74/74/74 90/90/90
f 75/75/75 90/90/90 91/91/91
f 76/76/76 75/75/75 91/91/91
f 76/76/76 91/91/91 92/92/92
f 77/77/77 76/76/76 92/92/92
f 77/77/77 92/92/92 93/93/93
f 78/78/78 77/77/77 93/93/93
f 78/78/78 93/93/93 94/94/94
f 79/79/79 78/78/78 94/94/94
f 79/79/79 94/94/94 95/95/95
f 80/80/80 79/79/79 95/95/95
f 80/80/80 95/95/95 96/96/96
f 81/81/81 80/80/80 96/96/96
f 81/81/81 96/96/96 97/97/97
f 82/82/82 81/81/81 97/97/97
f 82/82/82 97/97/97 98/98/98
f 67/67/67 82/82/82 98/98/98
f 67/67/67 98/98/98 83/83/83
f 84/84/84 83/83/83 99/99/99
f 84/84/84 99/99/99 100/100/100
f 85/85/85 84/84/84 100/100/100
f 85/85/85 100/100/100 101/101/101
f 86/86/86 85/85/85 101/101/101
f 86/86/86 101/101/101 102/102/102
f 87/87/87 86/86/86 102/102/102
f 87/87/87 102/102/102 103/103/103
f 88/88/88 87/87/87 103/103/103
f 88/88/88 103/103/103 104/104/104
f 89/89/89 88/88/88 104/104/104
f 89/89/89 104/104/104 105/105/105
f 90/90/90 89/89/89 105/105/105
f 90/90/90 105/105/105 106/106/106
f 91/91/91 90/90/90 106/106/106
f 91/91/91 106/106/106 107/107/107
f 92/92/92 91/91/91 107/107/107
f 92/92/92 107/107/107 108/108/108
f 93/93/93 92/92/92 108/108/108
f 93/93/93 108/108/108 109/109/109
f 94/94/94 93/93/93 109/109/109
f 94/94/94 109/109/109 110/110/110
f 95/95/95 94/94/94 110/110/110
f 95/95/95 110/110/110 111/111/111
f 96/96/96 95/95/95 111/111/111
f 96/96/96 111/111/111 112/112/112
f 97/97/97 96/96/96 112/112/112
f 97/97/97 112/112/112 113/113/113
f 98/98/98 97/97/97 113/113/113
f 98/98/98 113/113/113 114/114/114
f 83/83/83 98/98/98 114/114/114
f 83/83/83 114/114/114 99/99/99
f 100/100/100 99/99/99 115/115/115
f 100/100/100 115/115/115 116/116/116
f 101/101/101 100/100/100 116/116/116
f 101/101/101 116/116/116 117/117/117
f 102/102/102 101/101/101 117/117/117
f 102/102/102 117/117/117 118/118/118
f 103/103/103 102/102/102 118/118/118
f 103/103/103 118/118/118 119/119/119
f 104/104/104 103/103/103 119/119/119
f 104/104/104 119/119/119 120/120/120
f 105/105/105 104/104/104 120/120/120
f 105/105/105 120/120/120 121/121/121
f 106/106/106 105/105/105 121/121/121
f 106/106/106 121/121/121 122/122/122
f 107/107/107 106/106/106 122/122/122
f 107/107/107 122/122/122 123/123/123
f 108/108/108 107/107/107 123/123/123
f 108/108/108 123/123/123 124/124/124
f 109/109/109 108/108/108 124/124/124
f 109/109/109 124/124/124 125/125/125
f 110/110/110 109/109/109 125/125/125
f 110/110/110 125/125/125 126/126/126
f 111/111/111 110/110/110 126/126/126
f 111/111/111 126/126/126 127/127/127
f 112/112/112 111/111/111 127/127/127
f 112/112/112 127/127/127 128/128/128
f 113/113/113 112/112/112 128/128/128
f 113/113/113 128/128/128 129/129/129
f 114/114/114 113/113/113 129/129/129
f 114/114/114 129/129/129 130/130/130
f 99/99/99 114/114/114 130/130/130
f 99/99/99 130/130/130 115/115/115
f 116/116/116 115/115/115 131/131/131
f 116/116/116 131/131/131 132/132/132
f 117/117/117 116/116/116 132/132/132
f 117/117/117 132/132/132 133/133/133
f 118/118/118 117/117/117 133/133/133
f 118/118/118 133/133/133 134/134/134
f 119/119/119 118/118/118 134/134/134
f 119/119/119 134/134/134 135/135/135
f 120/120/120 119/119/119 135/135/135
f 120/120/120 135/135/135 136/136/136
f 121/121/121 120/120/120 136/136/136
f 121/121/121 136/136/136 137/137/137
f 122/122/122 121/121/121 137/137/137
f 122/122/122 137/137/137 138/138/138
f 123/123/123 122/122/122 138/138/138
f 123/123/123 138/138/138 139/139/139
f 124/124/124 123/123/123 139/139/139
f 124/124/124 139/139/139 140/140/140
f 125/125/125 124/124/124 140/140/140
f 125/125/125 140/140/140 141/141/141
f 126/126/126 125/125/125 141/141/141
f 126/126/126 141/141/141 142/142/142
f 127/127/127 126/126/126 142/142/142
f 127/127/127 142/142/142 143/143/143
f 128/128/128 127/127/127 143/143/143
f 128/128/128 143/143/143 144/144/144
f 129/129/129 128/128/128 144/144/144
f 129/129/129 144/144/144 145/145/145
f 130/130/130 129/129/129 145/145/145
f 130/130/130 145/145/145 146/146/146
f 115/115/115 130/130/130 146/146/146
f 115/115/115 146/146/146 131/131/131
f 132/132/132 131/131/131 4/4/4
f 132/132/132 4/4/4 6/6/6
f 133/133/133 132/132/132 6/6/6
f 133/133/133 6/6/6 8/8/8
f 134/134/134 133/133/133 8/8/8
f 134/134/134 8/8/8 10/10/10
f 135/135/135 134/134/134 10/10/10
f 135/135/135 10/10/10 12/12/12
f 136/136/136 135/135/135 12/12/12
f 136/136/136 12/12/12 14/14/14
f 137/137/137 136/136/136 14/14/14
f 137/137/137 14/14/14 16/16/16
f 138/138/138 137/137/137 16/16/16
f 138/138/138 16/16/16 18/18/18
f 139/139/139 138/138/138 18/18/18
f 139/139/139 18/18/18 20/20/20
f 140/140/140 139/139/139 20/20/20
f 140/140/140 20/20/20 22/22/22
f 141/141/141 140/140/140 22/22/22
f 141/141/141 22/22/22 24/24/24
f 142/142/142 141/141/141 24/24/24
f 142/142/142 24/24/24 26/26/26
f 143/143/143 142/142/142 26/26/26
f 143/143/143 26/26/26 28/28/28
f 144/144/144 143/143/143 28/28/28
f 144/144/144 28/28/28 30/30/30
f 145/145/145 144/144/144 30/30/30
f 145/145/145 30/30/30 32/32/32
f 146/146/146 145/145/145 32/32/32
f 146/146/146 32/32/32 34/34/34
f 131/131/131 146/146/146 34/34/34
f 131/131/131 34/34/34 4/4/4
